<?xml version="1.0" encoding="UTF-8" standalone="no"?>
<svg
   xmlns:dc="http://purl.org/dc/elements/1.1/"
   xmlns:cc="http://creativecommons.org/ns#"
   xmlns:rdf="http://www.w3.org/1999/02/22-rdf-syntax-ns#"
   xmlns:svg="http://www.w3.org/2000/svg"
   xmlns="http://www.w3.org/2000/svg"
   xmlns:sodipodi="http://sodipodi.sourceforge.net/DTD/sodipodi-0.dtd"
   xmlns:inkscape="http://www.inkscape.org/namespaces/inkscape"
   width="91.264694mm"
   height="56.857735mm"
   viewBox="0 0 91.264694 56.857735"
   version="1.1"
   id="svg8"
   inkscape:version="1.0.2 (e86c870879, 2021-01-15, custom)"
   sodipodi:docname="Project_Wildflower.svg">
  <defs
     id="defs2">
    <rect
       x="111.125"
       y="53.672619"
       width="17.008928"
       height="19.276787"
       id="rect58" />
    <rect
       x="111.50298"
       y="56.318451"
       width="2.6458333"
       height="13.607143"
       id="rect46" />
  </defs>
  <sodipodi:namedview
     id="base"
     pagecolor="#ffffff"
     bordercolor="#666666"
     borderopacity="1.0"
     inkscape:pageopacity="0.0"
     inkscape:pageshadow="2"
     inkscape:zoom="0.7"
     inkscape:cx="341.9684"
     inkscape:cy="405.17931"
     inkscape:document-units="mm"
     inkscape:current-layer="layer1"
     inkscape:document-rotation="0"
     showgrid="false"
     inkscape:window-width="1920"
     inkscape:window-height="1001"
     inkscape:window-x="1591"
     inkscape:window-y="-9"
     inkscape:window-maximized="1" />
  <metadata
     id="metadata5">
    <rdf:RDF>
      <cc:Work
         rdf:about="">
        <dc:format>image/svg+xml</dc:format>
        <dc:type
           rdf:resource="http://purl.org/dc/dcmitype/StillImage" />
        <dc:title />
      </cc:Work>
    </rdf:RDF>
  </metadata>
  <g
     inkscape:groupmode="layer"
     id="layer2"
     inkscape:label="TransparentLayer"
     style="opacity:1"
     transform="translate(-36.017967,-44.064747)" />
  <g
     inkscape:label="Layer 1"
     inkscape:groupmode="layer"
     id="layer1"
     transform="translate(-36.017967,-44.064747)">
    <g
       id="g108">
      <path
         style="fill:#000000;fill-opacity:1;fill-rule:nonzero;stroke:none;stroke-width:0.264583"
         id="path14"
         d="m 54.197683,51.800852 c 0.732227,-1.025361 1.505638,-2.008608 2.369913,-2.925503 0.284723,-0.367356 0.583702,-0.734433 0.985448,-0.980879 0.106823,-0.06553 0.445477,-0.229272 0.337431,-0.165783 -1.485402,0.872858 -5.959731,3.460409 -4.470339,2.594374 1.713524,-0.99636 3.428492,-1.990235 5.142738,-2.985351 -8.264157,4.767818 -4.877543,2.353979 -2.677083,2.014503 0.831919,-0.08643 1.672717,-0.108741 2.507919,-0.0656 0.712105,0.07087 1.395175,0.324421 2.034921,0.636143 0,0 4.701432,-3.073712 4.701432,-3.073712 v 0 c -0.663559,-0.386959 -1.408272,-0.669446 -2.162072,-0.811536 -0.849953,-0.134982 -1.718352,-0.05725 -2.57615,-0.03969 -2.742036,0.221295 -4.58575,1.772714 -7.066521,3.362883 1.486787,-0.857422 5.931562,-3.456154 4.460354,-2.572268 -2.740819,1.64666 -4.639781,2.110369 -6.374455,4.249441 -0.849474,0.955228 -1.615909,1.979337 -2.347254,3.027166 0,0 5.133718,-2.264182 5.133718,-2.264182 z" />
      <path
         style="fill:#000000;fill-opacity:1;fill-rule:nonzero;stroke:none;stroke-width:0.264583"
         id="path16"
         d="m 51.002207,55.76126 c 1.23815,0.421147 2.495905,0.697611 3.801129,0.762775 0.79153,0.0338 1.51031,-0.203502 2.194991,-0.577332 2.467052,-1.348062 5.011949,-2.551157 6.990797,-4.551473 0.658659,-0.52691 1.297458,-1.084194 1.842439,-1.728102 0,0 -5.182182,2.170485 -5.182182,2.170485 v 0 c -0.594966,0.587137 -1.216856,1.139912 -1.843611,1.692611 -1.709169,1.559936 -5.940118,3.934889 2.569456,-1.113348 -0.653889,0.363442 -1.261907,0.777118 -2.036972,0.830654 -1.27086,-0.0033 -2.500236,-0.167026 -3.693305,-0.636325 0,0 -4.642742,3.150055 -4.642742,3.150055 z" />
      <path
         style="fill:#000000;fill-opacity:1;fill-rule:nonzero;stroke:none;stroke-width:0.264583"
         id="path18"
         d="m 53.915233,52.286341 c -0.980999,-1.019357 -2.115521,-1.87779 -3.265954,-2.695416 -0.900525,-0.624763 -1.833861,-1.179613 -2.883156,-1.506035 -0.83897,-0.2243 -1.712275,-0.222636 -2.574134,-0.232201 -0.404109,-0.0069 -0.807334,-0.0016 -1.210982,0.01646 0,0 -4.502467,3.363249 -4.502467,3.363249 v 0 c 0.39162,-0.09075 0.770614,-0.09903 1.173445,-0.08435 0.830368,-0.0019 1.66769,-0.01939 2.489867,0.11484 1.033544,0.230267 1.931117,0.735354 2.808195,1.320604 1.118565,0.777351 2.232146,1.592675 3.157646,2.59838 0,0 4.80754,-2.895533 4.80754,-2.895533 z" />
      <path
         style="fill:#000000;fill-opacity:1;fill-rule:nonzero;stroke:none;stroke-width:0.264583"
         id="path20"
         d="m 50.96988,47.451602 c 1.10825,-0.700894 2.138702,-1.529813 3.2927,-2.15496 -7.739335,4.38799 -4.881136,2.305384 -2.524651,2.100861 0.493038,-0.02326 0.246126,-0.01476 0.740735,-0.02543 0,0 4.541676,-3.306871 4.541676,-3.306871 v 0 c -0.50393,-5.29e-4 -0.251656,-0.0016 -0.756827,0.0038 -2.877717,0.08983 -4.436679,1.366573 -7.225123,3.236699 -1.115483,0.704156 -2.192393,1.470498 -3.27892,2.218062 0,0 5.21041,-2.072102 5.21041,-2.072102 z" />
      <path
         style="fill:#000000;fill-opacity:1;fill-rule:nonzero;stroke:none;stroke-width:0.264583"
         id="path22"
         d="m 57.943866,48.157643 c -0.208386,-0.593926 -0.385824,-1.197332 -0.557729,-1.802525 0,0 -4.900318,2.671617 -4.900318,2.671617 v 0 c 0.172143,0.595694 0.356536,1.187816 0.514463,1.787512 0,0 4.943584,-2.656604 4.943584,-2.656604 z" />
      <path
         style="fill:#000000;fill-opacity:1;fill-rule:nonzero;stroke:none;stroke-width:0.264583"
         id="path24"
         d="m 53.303545,54.250703 c -1.403167,-0.304789 -2.782697,-0.704321 -4.176001,-1.048705 -1.185613,-0.345982 -2.379387,-0.593111 -3.609112,-0.698556 -1.128125,-0.07934 -2.259171,-0.09853 -3.389667,-0.106931 -0.577173,-0.04509 -1.125958,0.04747 -1.676247,0.208732 0,0 -4.434551,3.441716 -4.434551,3.441716 v 0 c 0.516676,-0.188222 1.006081,-0.423698 1.574414,-0.355944 1.13017,-0.0039 2.261055,-0.005 3.390008,0.05552 1.209752,0.08068 2.396307,0.263954 3.557138,0.629325 1.394962,0.312391 2.77319,0.700394 4.152627,1.073533 0,0 4.611391,-3.198693 4.611391,-3.198693 z" />
      <path
         style="fill:#000000;fill-opacity:1;fill-rule:nonzero;stroke:none;stroke-width:0.264583"
         id="path26"
         d="m 45.781676,58.692978 c 1.41369,-0.819529 2.831524,-1.631945 4.24107,-2.45858 0.390927,-0.229261 -0.803315,0.420431 -1.195186,0.648078 -1.590794,0.924132 -4.368025,2.31131 -6.218611,3.719053 -0.622461,0.503293 -1.235405,0.998063 -1.763376,1.60107 -0.08597,0.06988 -0.17194,0.139756 -0.257908,0.209632 0,0 5.204208,-2.129279 5.204208,-2.129279 v 0 c 0.08046,-0.08272 0.160917,-0.165434 0.241375,-0.24815 0.550854,-0.545569 1.165508,-1.022948 1.784085,-1.48894 1.61349,-1.065425 4.256598,-2.479781 -3.327453,1.843619 -0.1925,0.109738 0.377587,-0.232474 0.572643,-0.337603 0.202838,-0.109321 0.419957,-0.191275 0.620194,-0.305287 1.783585,-1.015542 3.553375,-2.055122 5.330063,-3.082682 0,0 -5.231104,2.029069 -5.231104,2.029069 z" />
      <path
         style="fill:#000000;fill-opacity:1;fill-rule:nonzero;stroke:none;stroke-width:0.264583"
         id="path28"
         d="m 50.585584,56.600134 c -1.332101,0.32117 -2.692726,0.496065 -4.055473,0.62025 -1.057431,0.04374 -2.098532,0.239337 -3.148901,0.353711 -0.764162,0.07928 -1.532237,0.06883 -2.292604,0.181864 0,0 -4.483666,3.382504 -4.483666,3.382504 v 0 c 0.754568,-0.163173 1.503383,-0.212637 2.276432,-0.226128 1.05863,-0.0963 2.101046,-0.300895 3.159869,-0.374248 1.368147,-0.09951 2.730695,-0.276739 4.077208,-0.540708 0,0 4.467135,-3.397245 4.467135,-3.397245 z" />
      <path
         style="fill:#000000;fill-opacity:1;fill-rule:nonzero;stroke:none;stroke-width:0.264583"
         id="path38"
         d="m 48.207572,58.783082 c 0.364583,1.479039 0.768739,2.95135 1.189937,4.415832 0.329772,1.037278 0.648896,2.075429 0.956374,3.119556 0.235527,0.973167 0.603295,1.905257 0.893262,2.861713 0.262038,0.903163 0.280609,1.846638 0.307134,2.779339 0.02093,1.198769 0.01786,2.397871 0.01064,3.596762 -0.03879,1.025085 -0.294137,2.007396 -0.520896,3.000049 -0.245647,0.762394 -0.48555,1.516536 -0.813763,2.247358 -0.36186,1.056378 -0.90506,2.043766 -1.39107,3.047717 -0.336685,0.400317 -0.459878,0.91219 -0.686197,1.368149 -0.210259,0.423606 -0.475258,0.814044 -0.67791,1.244894 -0.361683,0.453639 -0.558364,1.012418 -0.887434,1.485022 -0.155829,0.223797 -0.338968,0.427651 -0.496096,0.650536 -0.408721,0.587513 -0.71841,1.221732 -1.04583,1.858873 -0.447892,1.093689 -0.81153,2.230503 -1.125116,3.371077 -0.247306,0.929084 -0.280197,1.892226 -0.30692,2.847631 -0.02635,0.839433 0.182491,1.662091 0.281943,2.492253 0.09856,0.632476 0.472456,1.154427 0.667491,1.752637 0,0 4.928126,-2.7189 4.928126,-2.7189 v 0 c -0.197686,-0.557038 -0.532937,-1.054492 -0.622911,-1.64745 -0.108043,-0.799825 -0.304625,-1.596665 -0.249523,-2.408653 0.03308,-0.916193 0.09537,-1.834687 0.355616,-2.719564 0.323749,-1.113423 0.652184,-2.242066 1.190098,-3.273288 0.328869,-0.616151 0.670147,-1.220406 1.07719,-1.789893 0.502463,-0.70227 0.921573,-1.460172 1.340747,-2.213903 0.451255,-0.868678 0.887593,-1.743173 1.346195,-2.607961 0.498774,-1.013717 1.000744,-2.028579 1.400394,-3.086635 0.300067,-0.763106 0.566415,-1.537231 0.767702,-2.33309 0.233379,-1.022186 0.427014,-2.050926 0.449339,-3.103637 -0.0024,-1.204775 0.0069,-2.409639 -0.01492,-3.61429 -0.02981,-0.982755 -0.06534,-1.975154 -0.369046,-2.919449 -0.303533,-0.948055 -0.655696,-1.880688 -0.888646,-2.850563 -0.295547,-1.046737 -0.663336,-2.065795 -0.98992,-3.102671 -0.422005,-1.434216 -0.848391,-2.879336 -1.103092,-4.35298 0,0 -4.972897,2.603529 -4.972898,2.603529 z" />
      <text
         xml:space="preserve"
         style="font-style:normal;font-weight:normal;font-size:14.0058px;line-height:1.25;font-family:sans-serif;fill:#000000;fill-opacity:1;stroke:none;stroke-width:0.525215"
         x="71.581497"
         y="56.771122"
         id="text42"
         transform="scale(0.8149894,1.2270098)"><tspan
           id="tspan40"
           x="71.581497"
           y="56.771122"
           style="font-style:normal;font-variant:normal;font-weight:normal;font-stretch:normal;font-size:14.0058px;font-family:Algerian;-inkscape-font-specification:Algerian;stroke-width:0.525215"
           sodipodi:role="line">    Project</tspan><tspan
           x="71.581497"
           y="74.439827"
           style="font-style:normal;font-variant:normal;font-weight:normal;font-stretch:normal;font-size:14.0058px;font-family:Algerian;-inkscape-font-specification:Algerian;stroke-width:0.525215"
           sodipodi:role="line"
           id="tspan54">Wildflower</tspan></text>
    </g>
    <text
       xml:space="preserve"
       id="text44"
       style="font-style:normal;font-weight:normal;font-size:10.5833px;line-height:1.25;font-family:sans-serif;white-space:pre;shape-inside:url(#rect46);fill:#000000;fill-opacity:1;stroke:none;" />
    <text
       xml:space="preserve"
       id="text56"
       style="font-style:normal;font-weight:normal;font-size:10.5833px;line-height:1.25;font-family:sans-serif;white-space:pre;shape-inside:url(#rect58);fill:#000000;fill-opacity:1;stroke:none;" />
  </g>
</svg>
