<svg width="2236" height="992" xmlns="http://www.w3.org/2000/svg" xmlns:xlink="http://www.w3.org/1999/xlink" overflow="hidden"><defs><clipPath id="clip0"><rect x="1110" y="190" width="2236" height="992"/></clipPath><clipPath id="clip1"><rect x="1111" y="191" width="2233" height="988"/></clipPath><clipPath id="clip2"><rect x="1111" y="191" width="2233" height="988"/></clipPath><clipPath id="clip3"><rect x="1111" y="191" width="2233" height="988"/></clipPath><clipPath id="clip4"><rect x="1441" y="372" width="1229" height="622"/></clipPath><clipPath id="clip5"><rect x="1111" y="191" width="2233" height="988"/></clipPath><clipPath id="clip6"><rect x="1111" y="191" width="2233" height="988"/></clipPath><clipPath id="clip7"><rect x="1111" y="191" width="2233" height="988"/></clipPath><clipPath id="clip8"><rect x="1111" y="191" width="2233" height="988"/></clipPath><clipPath id="clip9"><rect x="1111" y="191" width="2233" height="988"/></clipPath><clipPath id="clip10"><rect x="1111" y="191" width="2233" height="988"/></clipPath><clipPath id="clip11"><rect x="1111" y="191" width="2233" height="988"/></clipPath><clipPath id="clip12"><rect x="1111" y="191" width="2233" height="988"/></clipPath><clipPath id="clip13"><rect x="1111" y="191" width="2233" height="988"/></clipPath><clipPath id="clip14"><rect x="1111" y="191" width="2233" height="988"/></clipPath><clipPath id="clip15"><rect x="1111" y="191" width="2233" height="988"/></clipPath><clipPath id="clip16"><rect x="1111" y="191" width="2233" height="988"/></clipPath><clipPath id="clip17"><rect x="1111" y="191" width="2233" height="988"/></clipPath><clipPath id="clip18"><rect x="1111" y="191" width="2233" height="988"/></clipPath><clipPath id="clip19"><rect x="1111" y="191" width="2233" height="988"/></clipPath><clipPath id="clip20"><rect x="1111" y="191" width="2233" height="988"/></clipPath><clipPath id="clip21"><rect x="1111" y="191" width="2233" height="988"/></clipPath><clipPath id="clip22"><rect x="1111" y="191" width="2233" height="988"/></clipPath><clipPath id="clip23"><rect x="1111" y="191" width="2233" height="988"/></clipPath><clipPath id="clip24"><rect x="1111" y="191" width="2233" height="988"/></clipPath><clipPath id="clip25"><rect x="1111" y="191" width="2233" height="988"/></clipPath><clipPath id="clip26"><rect x="1111" y="191" width="2233" height="988"/></clipPath><clipPath id="clip27"><rect x="1111" y="191" width="2233" height="988"/></clipPath><clipPath id="clip28"><rect x="1111" y="191" width="2233" height="988"/></clipPath><clipPath id="clip29"><rect x="1111" y="191" width="2233" height="988"/></clipPath><clipPath id="clip30"><rect x="1111" y="191" width="2233" height="988"/></clipPath><clipPath id="clip31"><rect x="1111" y="191" width="2233" height="988"/></clipPath><clipPath id="clip32"><rect x="1111" y="191" width="2233" height="988"/></clipPath><clipPath id="clip33"><rect x="1111" y="191" width="2233" height="988"/></clipPath><clipPath id="clip34"><rect x="1111" y="191" width="2233" height="988"/></clipPath><clipPath id="clip35"><rect x="1111" y="191" width="2233" height="988"/></clipPath><clipPath id="clip36"><rect x="1111" y="191" width="2233" height="988"/></clipPath><clipPath id="clip37"><rect x="1111" y="191" width="2233" height="989"/></clipPath><clipPath id="clip38"><rect x="1111" y="191" width="2233" height="989"/></clipPath><clipPath id="clip39"><rect x="1111" y="191" width="2233" height="989"/></clipPath><clipPath id="clip40"><rect x="1111" y="191" width="2233" height="989"/></clipPath><clipPath id="clip41"><rect x="973" y="579" width="4088" height="163"/></clipPath></defs><g clip-path="url(#clip0)" transform="translate(-1110 -190)"><rect x="1111" y="191" width="2233" height="989" fill="#FFFFFF"/><g clip-path="url(#clip1)"><path d="M1453.55 372.5 1453.55 990.5M1465.55 372.5 1465.55 990.5M1477.55 372.5 1477.55 990.5M1489.55 372.5 1489.55 990.5M1501.55 372.5 1501.55 990.5M1513.55 372.5 1513.55 990.5M1525.55 372.5 1525.55 990.5M1537.55 372.5 1537.55 990.5M1549.55 372.5 1549.55 990.5M1561.55 372.5 1561.55 990.5M1573.55 372.5 1573.55 990.5M1585.55 372.5 1585.55 990.5M1597.55 372.5 1597.55 990.5M1609.55 372.5 1609.55 990.5M1621.55 372.5 1621.55 990.5M1633.55 372.5 1633.55 990.5M1645.55 372.5 1645.55 990.5M1657.55 372.5 1657.55 990.5M1669.55 372.5 1669.55 990.5M1681.56 372.5 1681.56 990.5M1693.56 372.5 1693.56 990.5M1705.56 372.5 1705.56 990.5M1717.56 372.5 1717.56 990.5M1729.56 372.5 1729.56 990.5M1741.56 372.5 1741.56 990.5M1754.56 372.5 1754.56 990.5M1766.56 372.5 1766.56 990.5M1778.56 372.5 1778.56 990.5M1790.56 372.5 1790.56 990.5M1802.56 372.5 1802.56 990.5M1814.56 372.5 1814.56 990.5M1826.56 372.5 1826.56 990.5M1838.56 372.5 1838.56 990.5M1850.56 372.5 1850.56 990.5M1862.56 372.5 1862.56 990.5M1874.56 372.5 1874.56 990.5M1886.56 372.5 1886.56 990.5M1898.56 372.5 1898.56 990.5M1910.56 372.5 1910.56 990.5M1922.56 372.5 1922.56 990.5M1934.56 372.5 1934.56 990.5M1946.56 372.5 1946.56 990.5M1958.56 372.5 1958.56 990.5M1970.56 372.5 1970.56 990.5M1982.57 372.5 1982.57 990.5M1994.57 372.5 1994.57 990.5M2006.57 372.5 2006.57 990.5M2018.57 372.5 2018.57 990.5M2030.57 372.5 2030.57 990.5M2042.57 372.5 2042.57 990.5M2054.57 372.5 2054.57 990.5M2066.57 372.5 2066.57 990.5M2078.57 372.5 2078.57 990.5M2090.57 372.5 2090.57 990.5M2102.57 372.5 2102.57 990.5M2114.57 372.5 2114.57 990.5M2126.57 372.5 2126.57 990.5M2138.57 372.5 2138.57 990.5M2150.57 372.5 2150.57 990.5M2162.57 372.5 2162.57 990.5M2174.57 372.5 2174.57 990.5M2186.57 372.5 2186.57 990.5M2198.57 372.5 2198.57 990.5M2210.57 372.5 2210.57 990.5M2222.57 372.5 2222.57 990.5M2234.57 372.5 2234.57 990.5M2246.57 372.5 2246.57 990.5M2258.57 372.5 2258.57 990.5M2270.57 372.5 2270.57 990.5M2282.58 372.5 2282.58 990.5M2294.58 372.5 2294.58 990.5M2306.58 372.5 2306.58 990.5M2318.58 372.5 2318.58 990.5M2330.58 372.5 2330.58 990.5M2342.58 372.5 2342.58 990.5M2354.58 372.5 2354.58 990.5M2366.58 372.5 2366.58 990.5M2378.58 372.5 2378.58 990.5M2390.58 372.5 2390.58 990.5M2402.58 372.5 2402.58 990.5M2414.58 372.5 2414.58 990.5M2426.58 372.5 2426.58 990.5M2438.58 372.5 2438.58 990.5M2450.58 372.5 2450.58 990.5M2462.58 372.5 2462.58 990.5M2474.58 372.5 2474.58 990.5M2486.58 372.5 2486.58 990.5M2498.58 372.5 2498.58 990.5M2510.58 372.5 2510.58 990.5M2522.58 372.5 2522.58 990.5M2534.58 372.5 2534.58 990.5M2546.58 372.5 2546.58 990.5M2558.58 372.5 2558.58 990.5M2570.58 372.5 2570.58 990.5M2582.58 372.5 2582.58 990.5M2594.59 372.5 2594.59 990.5M2606.59 372.5 2606.59 990.5M2618.59 372.5 2618.59 990.5M2630.59 372.5 2630.59 990.5M2642.59 372.5 2642.59 990.5M2654.59 372.5 2654.59 990.5M2666.5 372.5 2666.5 990.5" stroke="#D9D9D9" stroke-width="3.4375" stroke-linejoin="round" stroke-miterlimit="10" fill="none"/></g><g clip-path="url(#clip2)"><path d="M0 0 0.000360892 618" stroke="#D9D9D9" stroke-width="3.4375" stroke-linejoin="round" stroke-miterlimit="10" fill="none" fill-rule="evenodd" transform="matrix(1 0 0 -1 1441.5 990.5)"/></g><g clip-path="url(#clip3)"><path d="M1441.5 990.5 2666.5 990.5" stroke="#D9D9D9" stroke-width="3.4375" stroke-linejoin="round" stroke-miterlimit="10" fill="none" fill-rule="evenodd"/></g><g clip-path="url(#clip4)"><path d="M1448 832.027 1460.05 833.027 1472.05 833.027 1484.05 833.027 1496.05 833.027 1508.05 833.027 1520.05 833.027 1532.05 833.027 1544.05 833.027 1556.05 833.027 1568.05 832.027 1580.05 832.027 1592.05 833.027 1604.05 833.027 1616.05 831.027 1628.05 595.02 1640.05 939.031 1652.05 616.02 1664.05 939.031 1676.05 939.031 1688.06 939.031 1700.06 939.031 1712.06 939.031 1724.06 938.031 1736.06 939.031 1748.06 939.031 1760.06 939.031 1772.06 939.031 1784.06 939.031 1796.06 612.02 1808.06 674.022 1820.06 939.031 1832.06 939.031 1844.06 707.023 1856.06 938.031 1868.06 939.031 1880.06 939.031 1892.06 939.031 1904.06 939.031 1916.06 938.031 1928.06 939.031 1940.06 939.031 1952.06 939.031 1964.06 939.031 1976.06 939.031 1988.07 939.031 2000.07 939.031 2012.07 939.031 2024.07 676.022 2036.07 939.031 2048.07 731.024 2060.07 939.031 2072.07 467 2084.07 670.022 2096.07 939.031 2108.07 939.031 2120.07 715.023 2132.07 939.031 2144.07 579.019 2156.07 938.031 2168.07 939.031 2180.07 939.031 2192.07 939.031 2204.07 939.031 2216.07 939.031 2228.07 939.031 2240.07 939.031 2252.07 939.031 2264.07 939.031 2276.07 939.031 2288.08 939.031 2300.08 939.031 2312.08 939.031 2324.08 939.031 2336.08 939.031 2348.08 741.024 2360.08 938.031 2372.08 939.031 2384.08 939.031 2396.08 939.031 2408.08 939.031 2420.08 939.031 2432.08 939.031 2444.08 939.031 2456.08 939.031 2468.08 939.031 2480.08 654.021 2492.08 939.031 2504.08 712.023 2516.08 939.031 2528.08 939.031 2540.08 734.024 2552.08 939.031 2564.08 939 2576.08 654.021 2589.08 938.031 2601.09 939.031 2613.09 939.031 2625.09 939.031 2637.09 939.031 2649.09 939.031 2661 939.031" stroke="#5F5F5F" stroke-width="8.02083" stroke-linecap="round" stroke-linejoin="round" stroke-miterlimit="10" fill="none"/></g><g clip-path="url(#clip5)"><path d="M1447.5 818.625 1460.5 831.625 1447.5 844.624 1434.5 831.625Z" stroke="#5F5F5F" stroke-width="3.4375" stroke-linejoin="round" stroke-miterlimit="10" fill="#5F5F5F"/><path d="M1459.5 819.625 1472.5 832.625 1459.5 845.624 1446.5 832.625Z" stroke="#5F5F5F" stroke-width="3.4375" stroke-linejoin="round" stroke-miterlimit="10" fill="#5F5F5F"/><path d="M1471.5 820.625 1484.5 833.625 1471.5 846.624 1458.5 833.625Z" stroke="#5F5F5F" stroke-width="3.4375" stroke-linejoin="round" stroke-miterlimit="10" fill="#5F5F5F"/><path d="M1483.5 819.625 1496.5 832.625 1483.5 845.624 1470.5 832.625Z" stroke="#5F5F5F" stroke-width="3.4375" stroke-linejoin="round" stroke-miterlimit="10" fill="#5F5F5F"/><path d="M1495.5 820.625 1508.5 833.625 1495.5 846.624 1482.5 833.625Z" stroke="#5F5F5F" stroke-width="3.4375" stroke-linejoin="round" stroke-miterlimit="10" fill="#5F5F5F"/><path d="M1507.5 820.625 1520.5 833.625 1507.5 846.624 1494.5 833.625Z" stroke="#5F5F5F" stroke-width="3.4375" stroke-linejoin="round" stroke-miterlimit="10" fill="#5F5F5F"/><path d="M1519.5 820.625 1532.5 833.625 1519.5 846.624 1506.5 833.625Z" stroke="#5F5F5F" stroke-width="3.4375" stroke-linejoin="round" stroke-miterlimit="10" fill="#5F5F5F"/><path d="M1531.5 820.625 1544.5 833.625 1531.5 846.624 1518.5 833.625Z" stroke="#5F5F5F" stroke-width="3.4375" stroke-linejoin="round" stroke-miterlimit="10" fill="#5F5F5F"/><path d="M1543.5 820.625 1556.5 833.625 1543.5 846.624 1530.5 833.625Z" stroke="#5F5F5F" stroke-width="3.4375" stroke-linejoin="round" stroke-miterlimit="10" fill="#5F5F5F"/><path d="M1555.5 819.625 1568.5 832.625 1555.5 845.624 1542.5 832.625Z" stroke="#5F5F5F" stroke-width="3.4375" stroke-linejoin="round" stroke-miterlimit="10" fill="#5F5F5F"/><path d="M1567.5 819.625 1580.5 832.625 1567.5 845.624 1554.5 832.625Z" stroke="#5F5F5F" stroke-width="3.4375" stroke-linejoin="round" stroke-miterlimit="10" fill="#5F5F5F"/><path d="M1579.5 819.625 1592.5 832.625 1579.5 845.624 1566.5 832.625Z" stroke="#5F5F5F" stroke-width="3.4375" stroke-linejoin="round" stroke-miterlimit="10" fill="#5F5F5F"/><path d="M1591.5 820.625 1604.5 833.625 1591.5 846.624 1578.5 833.625Z" stroke="#5F5F5F" stroke-width="3.4375" stroke-linejoin="round" stroke-miterlimit="10" fill="#5F5F5F"/><path d="M1603.5 820.625 1616.5 833.625 1603.5 846.624 1590.5 833.625Z" stroke="#5F5F5F" stroke-width="3.4375" stroke-linejoin="round" stroke-miterlimit="10" fill="#5F5F5F"/><path d="M1615.5 818.625 1628.5 831.625 1615.5 844.624 1602.5 831.625Z" stroke="#5F5F5F" stroke-width="3.4375" stroke-linejoin="round" stroke-miterlimit="10" fill="#5F5F5F"/><path d="M1627.5 582.625 1640.5 595.624 1627.5 608.624 1614.5 595.624Z" stroke="#5F5F5F" stroke-width="3.4375" stroke-linejoin="round" stroke-miterlimit="10" fill="#5F5F5F"/><path d="M1639.5 925.625 1652.5 938.624 1639.5 951.624 1626.5 938.624Z" stroke="#5F5F5F" stroke-width="3.4375" stroke-linejoin="round" stroke-miterlimit="10" fill="#5F5F5F"/><path d="M1651.5 602.625 1664.5 615.625 1651.5 628.624 1638.5 615.625Z" stroke="#5F5F5F" stroke-width="3.4375" stroke-linejoin="round" stroke-miterlimit="10" fill="#5F5F5F"/><path d="M1664.5 925.625 1677.5 938.624 1664.5 951.624 1651.5 938.624Z" stroke="#5F5F5F" stroke-width="3.4375" stroke-linejoin="round" stroke-miterlimit="10" fill="#5F5F5F"/><path d="M1676.5 925.625 1689.5 938.624 1676.5 951.624 1663.5 938.624Z" stroke="#5F5F5F" stroke-width="3.4375" stroke-linejoin="round" stroke-miterlimit="10" fill="#5F5F5F"/><path d="M1688.5 925.625 1701.5 938.624 1688.5 951.624 1675.5 938.624Z" stroke="#5F5F5F" stroke-width="3.4375" stroke-linejoin="round" stroke-miterlimit="10" fill="#5F5F5F"/><path d="M1700.5 925.625 1713.5 938.624 1700.5 951.624 1687.5 938.624Z" stroke="#5F5F5F" stroke-width="3.4375" stroke-linejoin="round" stroke-miterlimit="10" fill="#5F5F5F"/><path d="M1712.5 925.625 1725.5 938.624 1712.5 951.624 1699.5 938.624Z" stroke="#5F5F5F" stroke-width="3.4375" stroke-linejoin="round" stroke-miterlimit="10" fill="#5F5F5F"/><path d="M1724.5 925.625 1737.5 938.624 1724.5 951.624 1711.5 938.624Z" stroke="#5F5F5F" stroke-width="3.4375" stroke-linejoin="round" stroke-miterlimit="10" fill="#5F5F5F"/><path d="M1736.5 925.625 1749.5 938.624 1736.5 951.624 1723.5 938.624Z" stroke="#5F5F5F" stroke-width="3.4375" stroke-linejoin="round" stroke-miterlimit="10" fill="#5F5F5F"/><path d="M1748.5 925.625 1761.5 938.624 1748.5 951.624 1735.5 938.624Z" stroke="#5F5F5F" stroke-width="3.4375" stroke-linejoin="round" stroke-miterlimit="10" fill="#5F5F5F"/><path d="M1760.5 925.625 1773.5 938.624 1760.5 951.624 1747.5 938.624Z" stroke="#5F5F5F" stroke-width="3.4375" stroke-linejoin="round" stroke-miterlimit="10" fill="#5F5F5F"/><path d="M1772.5 925.625 1785.5 938.624 1772.5 951.624 1759.5 938.624Z" stroke="#5F5F5F" stroke-width="3.4375" stroke-linejoin="round" stroke-miterlimit="10" fill="#5F5F5F"/><path d="M1784.5 925.625 1797.5 938.624 1784.5 951.624 1771.5 938.624Z" stroke="#5F5F5F" stroke-width="3.4375" stroke-linejoin="round" stroke-miterlimit="10" fill="#5F5F5F"/><path d="M1796.5 598.625 1809.5 611.625 1796.5 624.624 1783.5 611.625Z" stroke="#5F5F5F" stroke-width="3.4375" stroke-linejoin="round" stroke-miterlimit="10" fill="#5F5F5F"/><path d="M1808.5 660.625 1821.5 673.624 1808.5 686.624 1795.5 673.624Z" stroke="#5F5F5F" stroke-width="3.4375" stroke-linejoin="round" stroke-miterlimit="10" fill="#5F5F5F"/><path d="M1820.5 925.625 1833.5 938.624 1820.5 951.624 1807.5 938.624Z" stroke="#5F5F5F" stroke-width="3.4375" stroke-linejoin="round" stroke-miterlimit="10" fill="#5F5F5F"/><path d="M1832.5 925.625 1845.5 938.624 1832.5 951.624 1819.5 938.624Z" stroke="#5F5F5F" stroke-width="3.4375" stroke-linejoin="round" stroke-miterlimit="10" fill="#5F5F5F"/><path d="M1844.5 694.625 1857.5 707.624 1844.5 720.624 1831.5 707.624Z" stroke="#5F5F5F" stroke-width="3.4375" stroke-linejoin="round" stroke-miterlimit="10" fill="#5F5F5F"/><path d="M1856.5 925.625 1869.5 938.624 1856.5 951.624 1843.5 938.624Z" stroke="#5F5F5F" stroke-width="3.4375" stroke-linejoin="round" stroke-miterlimit="10" fill="#5F5F5F"/><path d="M1868.5 925.625 1881.5 938.624 1868.5 951.624 1855.5 938.624Z" stroke="#5F5F5F" stroke-width="3.4375" stroke-linejoin="round" stroke-miterlimit="10" fill="#5F5F5F"/><path d="M1880.5 925.625 1893.5 938.624 1880.5 951.624 1867.5 938.624Z" stroke="#5F5F5F" stroke-width="3.4375" stroke-linejoin="round" stroke-miterlimit="10" fill="#5F5F5F"/><path d="M1892.5 925.625 1905.5 938.624 1892.5 951.624 1879.5 938.624Z" stroke="#5F5F5F" stroke-width="3.4375" stroke-linejoin="round" stroke-miterlimit="10" fill="#5F5F5F"/><path d="M1904.5 925.625 1917.5 938.624 1904.5 951.624 1891.5 938.624Z" stroke="#5F5F5F" stroke-width="3.4375" stroke-linejoin="round" stroke-miterlimit="10" fill="#5F5F5F"/><path d="M1916.5 925.625 1929.5 938.624 1916.5 951.624 1903.5 938.624Z" stroke="#5F5F5F" stroke-width="3.4375" stroke-linejoin="round" stroke-miterlimit="10" fill="#5F5F5F"/><path d="M1928.5 925.625 1941.5 938.624 1928.5 951.624 1915.5 938.624Z" stroke="#5F5F5F" stroke-width="3.4375" stroke-linejoin="round" stroke-miterlimit="10" fill="#5F5F5F"/><path d="M1940.5 925.625 1953.5 938.624 1940.5 951.624 1927.5 938.624Z" stroke="#5F5F5F" stroke-width="3.4375" stroke-linejoin="round" stroke-miterlimit="10" fill="#5F5F5F"/><path d="M1952.5 925.625 1965.5 938.624 1952.5 951.624 1939.5 938.624Z" stroke="#5F5F5F" stroke-width="3.4375" stroke-linejoin="round" stroke-miterlimit="10" fill="#5F5F5F"/><path d="M1964.5 925.625 1977.5 938.624 1964.5 951.624 1951.5 938.624Z" stroke="#5F5F5F" stroke-width="3.4375" stroke-linejoin="round" stroke-miterlimit="10" fill="#5F5F5F"/><path d="M1976.5 925.625 1989.5 938.624 1976.5 951.624 1963.5 938.624Z" stroke="#5F5F5F" stroke-width="3.4375" stroke-linejoin="round" stroke-miterlimit="10" fill="#5F5F5F"/><path d="M1988.5 925.625 2001.5 938.624 1988.5 951.624 1975.5 938.624Z" stroke="#5F5F5F" stroke-width="3.4375" stroke-linejoin="round" stroke-miterlimit="10" fill="#5F5F5F"/><path d="M2000.5 925.625 2013.5 938.624 2000.5 951.624 1987.5 938.624Z" stroke="#5F5F5F" stroke-width="3.4375" stroke-linejoin="round" stroke-miterlimit="10" fill="#5F5F5F"/><path d="M2012.5 925.625 2025.5 938.624 2012.5 951.624 1999.5 938.624Z" stroke="#5F5F5F" stroke-width="3.4375" stroke-linejoin="round" stroke-miterlimit="10" fill="#5F5F5F"/><path d="M2024.5 662.625 2037.5 675.624 2024.5 688.624 2011.5 675.624Z" stroke="#5F5F5F" stroke-width="3.4375" stroke-linejoin="round" stroke-miterlimit="10" fill="#5F5F5F"/><path d="M2036.5 925.625 2049.5 938.624 2036.5 951.624 2023.5 938.624Z" stroke="#5F5F5F" stroke-width="3.4375" stroke-linejoin="round" stroke-miterlimit="10" fill="#5F5F5F"/><path d="M2048.5 718.625 2061.5 731.625 2048.5 744.624 2035.5 731.625Z" stroke="#5F5F5F" stroke-width="3.4375" stroke-linejoin="round" stroke-miterlimit="10" fill="#5F5F5F"/><path d="M2060.5 925.625 2073.5 938.624 2060.5 951.624 2047.5 938.624Z" stroke="#5F5F5F" stroke-width="3.4375" stroke-linejoin="round" stroke-miterlimit="10" fill="#5F5F5F"/><path d="M2072.5 453.625 2085.5 466.624 2072.5 479.624 2059.5 466.624Z" stroke="#5F5F5F" stroke-width="3.4375" stroke-linejoin="round" stroke-miterlimit="10" fill="#5F5F5F"/><path d="M2084.5 657.625 2097.5 670.625 2084.5 683.624 2071.5 670.625Z" stroke="#5F5F5F" stroke-width="3.4375" stroke-linejoin="round" stroke-miterlimit="10" fill="#5F5F5F"/><path d="M2096.5 925.625 2109.5 938.624 2096.5 951.624 2083.5 938.624Z" stroke="#5F5F5F" stroke-width="3.4375" stroke-linejoin="round" stroke-miterlimit="10" fill="#5F5F5F"/><path d="M2108.5 925.625 2121.5 938.624 2108.5 951.624 2095.5 938.624Z" stroke="#5F5F5F" stroke-width="3.4375" stroke-linejoin="round" stroke-miterlimit="10" fill="#5F5F5F"/><path d="M2120.5 701.625 2133.5 714.625 2120.5 727.624 2107.5 714.625Z" stroke="#5F5F5F" stroke-width="3.4375" stroke-linejoin="round" stroke-miterlimit="10" fill="#5F5F5F"/><path d="M2132.5 925.625 2145.5 938.624 2132.5 951.624 2119.5 938.624Z" stroke="#5F5F5F" stroke-width="3.4375" stroke-linejoin="round" stroke-miterlimit="10" fill="#5F5F5F"/><path d="M2144.5 566.625 2157.5 579.625 2144.5 592.624 2131.5 579.625Z" stroke="#5F5F5F" stroke-width="3.4375" stroke-linejoin="round" stroke-miterlimit="10" fill="#5F5F5F"/><path d="M2156.5 925.625 2169.5 938.624 2156.5 951.624 2143.5 938.624Z" stroke="#5F5F5F" stroke-width="3.4375" stroke-linejoin="round" stroke-miterlimit="10" fill="#5F5F5F"/><path d="M2168.5 925.625 2181.5 938.624 2168.5 951.624 2155.5 938.624Z" stroke="#5F5F5F" stroke-width="3.4375" stroke-linejoin="round" stroke-miterlimit="10" fill="#5F5F5F"/><path d="M2180.5 925.625 2193.5 938.624 2180.5 951.624 2167.5 938.624Z" stroke="#5F5F5F" stroke-width="3.4375" stroke-linejoin="round" stroke-miterlimit="10" fill="#5F5F5F"/><path d="M2192.5 925.625 2205.5 938.624 2192.5 951.624 2179.5 938.624Z" stroke="#5F5F5F" stroke-width="3.4375" stroke-linejoin="round" stroke-miterlimit="10" fill="#5F5F5F"/><path d="M2204.5 925.625 2217.5 938.624 2204.5 951.624 2191.5 938.624Z" stroke="#5F5F5F" stroke-width="3.4375" stroke-linejoin="round" stroke-miterlimit="10" fill="#5F5F5F"/><path d="M2216.5 925.625 2229.5 938.624 2216.5 951.624 2203.5 938.624Z" stroke="#5F5F5F" stroke-width="3.4375" stroke-linejoin="round" stroke-miterlimit="10" fill="#5F5F5F"/><path d="M2228.5 925.625 2241.5 938.624 2228.5 951.624 2215.5 938.624Z" stroke="#5F5F5F" stroke-width="3.4375" stroke-linejoin="round" stroke-miterlimit="10" fill="#5F5F5F"/><path d="M2240.5 925.625 2253.5 938.624 2240.5 951.624 2227.5 938.624Z" stroke="#5F5F5F" stroke-width="3.4375" stroke-linejoin="round" stroke-miterlimit="10" fill="#5F5F5F"/><path d="M2252.5 925.625 2265.5 938.624 2252.5 951.624 2239.5 938.624Z" stroke="#5F5F5F" stroke-width="3.4375" stroke-linejoin="round" stroke-miterlimit="10" fill="#5F5F5F"/><path d="M2264.5 925.625 2277.5 938.624 2264.5 951.624 2251.5 938.624Z" stroke="#5F5F5F" stroke-width="3.4375" stroke-linejoin="round" stroke-miterlimit="10" fill="#5F5F5F"/><path d="M2276.5 925.625 2289.5 938.624 2276.5 951.624 2263.5 938.624Z" stroke="#5F5F5F" stroke-width="3.4375" stroke-linejoin="round" stroke-miterlimit="10" fill="#5F5F5F"/><path d="M2288.5 925.625 2301.5 938.624 2288.5 951.624 2275.5 938.624Z" stroke="#5F5F5F" stroke-width="3.4375" stroke-linejoin="round" stroke-miterlimit="10" fill="#5F5F5F"/><path d="M2300.5 925.625 2313.5 938.624 2300.5 951.624 2287.5 938.624Z" stroke="#5F5F5F" stroke-width="3.4375" stroke-linejoin="round" stroke-miterlimit="10" fill="#5F5F5F"/><path d="M2312.5 925.625 2325.5 938.624 2312.5 951.624 2299.5 938.624Z" stroke="#5F5F5F" stroke-width="3.4375" stroke-linejoin="round" stroke-miterlimit="10" fill="#5F5F5F"/><path d="M2324.5 925.625 2337.5 938.624 2324.5 951.624 2311.5 938.624Z" stroke="#5F5F5F" stroke-width="3.4375" stroke-linejoin="round" stroke-miterlimit="10" fill="#5F5F5F"/><path d="M2336.5 925.625 2349.5 938.624 2336.5 951.624 2323.5 938.624Z" stroke="#5F5F5F" stroke-width="3.4375" stroke-linejoin="round" stroke-miterlimit="10" fill="#5F5F5F"/><path d="M2348.5 727.625 2361.5 740.624 2348.5 753.624 2335.5 740.624Z" stroke="#5F5F5F" stroke-width="3.4375" stroke-linejoin="round" stroke-miterlimit="10" fill="#5F5F5F"/><path d="M2360.5 925.625 2373.5 938.624 2360.5 951.624 2347.5 938.624Z" stroke="#5F5F5F" stroke-width="3.4375" stroke-linejoin="round" stroke-miterlimit="10" fill="#5F5F5F"/><path d="M2372.5 925.625 2385.5 938.624 2372.5 951.624 2359.5 938.624Z" stroke="#5F5F5F" stroke-width="3.4375" stroke-linejoin="round" stroke-miterlimit="10" fill="#5F5F5F"/><path d="M2384.5 925.625 2397.5 938.624 2384.5 951.624 2371.5 938.624Z" stroke="#5F5F5F" stroke-width="3.4375" stroke-linejoin="round" stroke-miterlimit="10" fill="#5F5F5F"/><path d="M2396.5 925.625 2409.5 938.624 2396.5 951.624 2383.5 938.624Z" stroke="#5F5F5F" stroke-width="3.4375" stroke-linejoin="round" stroke-miterlimit="10" fill="#5F5F5F"/><path d="M2408.5 925.625 2421.5 938.624 2408.5 951.624 2395.5 938.624Z" stroke="#5F5F5F" stroke-width="3.4375" stroke-linejoin="round" stroke-miterlimit="10" fill="#5F5F5F"/><path d="M2420.5 925.625 2433.5 938.624 2420.5 951.624 2407.5 938.624Z" stroke="#5F5F5F" stroke-width="3.4375" stroke-linejoin="round" stroke-miterlimit="10" fill="#5F5F5F"/><path d="M2432.5 925.625 2445.5 938.624 2432.5 951.624 2419.5 938.624Z" stroke="#5F5F5F" stroke-width="3.4375" stroke-linejoin="round" stroke-miterlimit="10" fill="#5F5F5F"/><path d="M2444.5 925.625 2457.5 938.624 2444.5 951.624 2431.5 938.624Z" stroke="#5F5F5F" stroke-width="3.4375" stroke-linejoin="round" stroke-miterlimit="10" fill="#5F5F5F"/><path d="M2456.5 925.625 2469.5 938.624 2456.5 951.624 2443.5 938.624Z" stroke="#5F5F5F" stroke-width="3.4375" stroke-linejoin="round" stroke-miterlimit="10" fill="#5F5F5F"/><path d="M2468.5 925.625 2481.5 938.624 2468.5 951.624 2455.5 938.624Z" stroke="#5F5F5F" stroke-width="3.4375" stroke-linejoin="round" stroke-miterlimit="10" fill="#5F5F5F"/><path d="M2480.5 641.625 2493.5 654.625 2480.5 667.624 2467.5 654.625Z" stroke="#5F5F5F" stroke-width="3.4375" stroke-linejoin="round" stroke-miterlimit="10" fill="#5F5F5F"/><path d="M2492.5 925.625 2505.5 938.624 2492.5 951.624 2479.5 938.624Z" stroke="#5F5F5F" stroke-width="3.4375" stroke-linejoin="round" stroke-miterlimit="10" fill="#5F5F5F"/><path d="M2504.5 699.625 2517.5 712.625 2504.5 725.624 2491.5 712.625Z" stroke="#5F5F5F" stroke-width="3.4375" stroke-linejoin="round" stroke-miterlimit="10" fill="#5F5F5F"/><path d="M2516.5 925.625 2529.5 938.624 2516.5 951.624 2503.5 938.624Z" stroke="#5F5F5F" stroke-width="3.4375" stroke-linejoin="round" stroke-miterlimit="10" fill="#5F5F5F"/><path d="M2528.5 925.625 2541.5 938.624 2528.5 951.624 2515.5 938.624Z" stroke="#5F5F5F" stroke-width="3.4375" stroke-linejoin="round" stroke-miterlimit="10" fill="#5F5F5F"/><path d="M2540.5 720.625 2553.5 733.625 2540.5 746.624 2527.5 733.625Z" stroke="#5F5F5F" stroke-width="3.4375" stroke-linejoin="round" stroke-miterlimit="10" fill="#5F5F5F"/><path d="M2552.5 925.625 2565.5 938.624 2552.5 951.624 2539.5 938.624Z" stroke="#5F5F5F" stroke-width="3.4375" stroke-linejoin="round" stroke-miterlimit="10" fill="#5F5F5F"/><path d="M2564.5 926.625 2577.5 939.624 2564.5 952.624 2551.5 939.624Z" stroke="#5F5F5F" stroke-width="3.4375" stroke-linejoin="round" stroke-miterlimit="10" fill="#5F5F5F"/><path d="M2576.5 640.625 2589.5 653.624 2576.5 666.624 2563.5 653.624Z" stroke="#5F5F5F" stroke-width="3.4375" stroke-linejoin="round" stroke-miterlimit="10" fill="#5F5F5F"/><path d="M2588.5 925.625 2601.5 938.624 2588.5 951.624 2575.5 938.624Z" stroke="#5F5F5F" stroke-width="3.4375" stroke-linejoin="round" stroke-miterlimit="10" fill="#5F5F5F"/><path d="M2600.5 925.625 2613.5 938.624 2600.5 951.624 2587.5 938.624Z" stroke="#5F5F5F" stroke-width="3.4375" stroke-linejoin="round" stroke-miterlimit="10" fill="#5F5F5F"/><path d="M2612.5 925.625 2625.5 938.624 2612.5 951.624 2599.5 938.624Z" stroke="#5F5F5F" stroke-width="3.4375" stroke-linejoin="round" stroke-miterlimit="10" fill="#5F5F5F"/><path d="M2624.5 925.625 2637.5 938.624 2624.5 951.624 2611.5 938.624Z" stroke="#5F5F5F" stroke-width="3.4375" stroke-linejoin="round" stroke-miterlimit="10" fill="#5F5F5F"/><path d="M2636.5 925.625 2649.5 938.624 2636.5 951.624 2623.5 938.624Z" stroke="#5F5F5F" stroke-width="3.4375" stroke-linejoin="round" stroke-miterlimit="10" fill="#5F5F5F"/><path d="M2648.5 925.625 2661.5 938.624 2648.5 951.624 2635.5 938.624Z" stroke="#5F5F5F" stroke-width="3.4375" stroke-linejoin="round" stroke-miterlimit="10" fill="#5F5F5F"/><path d="M2660.5 925.625 2673.5 938.624 2660.5 951.624 2647.5 938.624Z" stroke="#5F5F5F" stroke-width="3.4375" stroke-linejoin="round" stroke-miterlimit="10" fill="#5F5F5F"/></g><g clip-path="url(#clip6)"><text fill="#595959" font-family="Calibri,Calibri_MSFontService,sans-serif" font-weight="400" font-size="41" transform="matrix(1 0 0 1 1382.69 1002)">0</text></g><g clip-path="url(#clip7)"><text fill="#595959" font-family="Calibri,Calibri_MSFontService,sans-serif" font-weight="400" font-size="41" transform="matrix(1 0 0 1 1340.89 899)">500</text></g><g clip-path="url(#clip8)"><text fill="#595959" font-family="Calibri,Calibri_MSFontService,sans-serif" font-weight="400" font-size="41" transform="matrix(1 0 0 1 1319.99 796)">1000</text></g><g clip-path="url(#clip9)"><text fill="#595959" font-family="Calibri,Calibri_MSFontService,sans-serif" font-weight="400" font-size="41" transform="matrix(1 0 0 1 1319.99 693)">1500</text></g><g clip-path="url(#clip10)"><text fill="#595959" font-family="Calibri,Calibri_MSFontService,sans-serif" font-weight="400" font-size="41" transform="matrix(1 0 0 1 1319.99 590)">2000</text></g><g clip-path="url(#clip11)"><text fill="#595959" font-family="Calibri,Calibri_MSFontService,sans-serif" font-weight="400" font-size="41" transform="matrix(1 0 0 1 1319.99 487)">2500</text></g><g clip-path="url(#clip12)"><text fill="#595959" font-family="Calibri,Calibri_MSFontService,sans-serif" font-weight="400" font-size="41" transform="matrix(1 0 0 1 1319.99 384)">3000</text></g><g clip-path="url(#clip13)"><text fill="#595959" font-family="Calibri,Calibri_MSFontService,sans-serif" font-weight="400" font-size="37" transform="matrix(1 0 0 1 1435.82 1049)">1</text></g><g clip-path="url(#clip14)"><text fill="#595959" font-family="Calibri,Calibri_MSFontService,sans-serif" font-weight="400" font-size="37" transform="matrix(1 0 0 1 1495.86 1049)">6</text></g><g clip-path="url(#clip15)"><text fill="#595959" font-family="Calibri,Calibri_MSFontService,sans-serif" font-weight="400" font-size="37" transform="matrix(1 0 0 1 1543.86 1049)">11</text></g><g clip-path="url(#clip16)"><text fill="#595959" font-family="Calibri,Calibri_MSFontService,sans-serif" font-weight="400" font-size="37" transform="matrix(1 0 0 1 1603.89 1049)">16</text></g><g clip-path="url(#clip17)"><text fill="#595959" font-family="Calibri,Calibri_MSFontService,sans-serif" font-weight="400" font-size="37" transform="matrix(1 0 0 1 1663.93 1049)">21</text></g><g clip-path="url(#clip18)"><text fill="#595959" font-family="Calibri,Calibri_MSFontService,sans-serif" font-weight="400" font-size="37" transform="matrix(1 0 0 1 1723.97 1049)">26</text></g><g clip-path="url(#clip19)"><text fill="#595959" font-family="Calibri,Calibri_MSFontService,sans-serif" font-weight="400" font-size="37" transform="matrix(1 0 0 1 1784.01 1049)">31</text></g><g clip-path="url(#clip20)"><text fill="#595959" font-family="Calibri,Calibri_MSFontService,sans-serif" font-weight="400" font-size="37" transform="matrix(1 0 0 1 1844.05 1049)">36</text></g><g clip-path="url(#clip21)"><text fill="#595959" font-family="Calibri,Calibri_MSFontService,sans-serif" font-weight="400" font-size="37" transform="matrix(1 0 0 1 1904.08 1049)">41</text></g><g clip-path="url(#clip22)"><text fill="#595959" font-family="Calibri,Calibri_MSFontService,sans-serif" font-weight="400" font-size="37" transform="matrix(1 0 0 1 1964.12 1049)">46</text></g><g clip-path="url(#clip23)"><text fill="#595959" font-family="Calibri,Calibri_MSFontService,sans-serif" font-weight="400" font-size="37" transform="matrix(1 0 0 1 2024.16 1049)">51</text></g><g clip-path="url(#clip24)"><text fill="#595959" font-family="Calibri,Calibri_MSFontService,sans-serif" font-weight="400" font-size="37" transform="matrix(1 0 0 1 2084.2 1049)">56</text></g><g clip-path="url(#clip25)"><text fill="#595959" font-family="Calibri,Calibri_MSFontService,sans-serif" font-weight="400" font-size="37" transform="matrix(1 0 0 1 2144.24 1049)">61</text></g><g clip-path="url(#clip26)"><text fill="#595959" font-family="Calibri,Calibri_MSFontService,sans-serif" font-weight="400" font-size="37" transform="matrix(1 0 0 1 2204.27 1049)">66</text></g><g clip-path="url(#clip27)"><text fill="#595959" font-family="Calibri,Calibri_MSFontService,sans-serif" font-weight="400" font-size="37" transform="matrix(1 0 0 1 2264.31 1049)">71</text></g><g clip-path="url(#clip28)"><text fill="#595959" font-family="Calibri,Calibri_MSFontService,sans-serif" font-weight="400" font-size="37" transform="matrix(1 0 0 1 2324.35 1049)">76</text></g><g clip-path="url(#clip29)"><text fill="#595959" font-family="Calibri,Calibri_MSFontService,sans-serif" font-weight="400" font-size="37" transform="matrix(1 0 0 1 2384.39 1049)">81</text></g><g clip-path="url(#clip30)"><text fill="#595959" font-family="Calibri,Calibri_MSFontService,sans-serif" font-weight="400" font-size="37" transform="matrix(1 0 0 1 2444.43 1049)">86</text></g><g clip-path="url(#clip31)"><text fill="#595959" font-family="Calibri,Calibri_MSFontService,sans-serif" font-weight="400" font-size="37" transform="matrix(1 0 0 1 2504.46 1049)">91</text></g><g clip-path="url(#clip32)"><text fill="#595959" font-family="Calibri,Calibri_MSFontService,sans-serif" font-weight="400" font-size="37" transform="matrix(1 0 0 1 2564.5 1049)">96</text></g><g clip-path="url(#clip33)"><text fill="#595959" font-family="Calibri,Calibri_MSFontService,sans-serif" font-weight="400" font-size="37" transform="matrix(1 0 0 1 2612.5 1049)">101</text></g><g clip-path="url(#clip34)"><text fill="#595959" font-family="Calibri,Calibri_MSFontService,sans-serif" font-weight="400" font-size="41" transform="matrix(6.12323e-17 -1 1 6.12323e-17 1294.9 801)">LATENCY (MS) </text></g><g clip-path="url(#clip35)"><text fill="#595959" font-family="Calibri,Calibri_MSFontService,sans-serif" font-weight="400" font-size="41" transform="matrix(1 0 0 1 1904.47 1111)">SAMPLE NUMBER</text></g><g clip-path="url(#clip36)"><text fill="#595959" font-family="Calibri,Calibri_MSFontService,sans-serif" font-weight="700" font-size="73" transform="matrix(1 0 0 1 1638.46 296)">UDP TRANSMIT RECEIVE LATENCY</text></g><rect x="1111.5" y="191.5" width="2233" height="989" stroke="#D9D9D9" stroke-width="3.4375" stroke-linejoin="round" stroke-miterlimit="10" fill="none"/><g clip-path="url(#clip37)"><rect x="2692.5" y="580.5" width="652" height="162" stroke="#787878" stroke-width="4.58333" stroke-miterlimit="8" fill="#A5A5A5"/></g><g clip-path="url(#clip38)"><text fill="#FFFFFF" font-family="Calibri,Calibri_MSFontService,sans-serif" font-weight="400" font-size="50" transform="matrix(1 0 0 1 2725.25 644)">Mean: 540.245</text></g><g clip-path="url(#clip39)"><text fill="#FFFFFF" font-family="Calibri,Calibri_MSFontService,sans-serif" font-weight="400" font-size="50" transform="matrix(1 0 0 1 3046.41 644)">ms</text></g><g clip-path="url(#clip40)"><g clip-path="url(#clip41)"><text fill="#FFFFFF" font-family="Calibri,Calibri_MSFontService,sans-serif" font-weight="400" font-size="50" transform="matrix(1 0 0 1 2725.25 706)">Standard Deviation: 512.995</text></g></g></g></svg>